<?xml version="1.0" standalone="no"?>
<!DOCTYPE svg PUBLIC "-//W3C//DTD SVG 20010904//EN"
 "http://www.w3.org/TR/2001/REC-SVG-20010904/DTD/svg10.dtd">
<svg version="1.0" xmlns="http://www.w3.org/2000/svg"
 width="138.000000pt" height="138.000000pt" viewBox="0 0 138.000000 138.000000"
 preserveAspectRatio="xMidYMid meet">
<metadata>
Created by potrace 1.11, written by Peter Selinger 2001-2013
</metadata>
<g transform="translate(0.000000,138.000000) scale(0.100000,-0.100000)"
fill="#000000" stroke="none">
<path d="M417 1373 c-4 -3 -7 -95 -7 -204 l0 -199 -202 -2 -203 -3 0 -270 0
-270 202 -3 203 -2 2 -208 3 -207 280 0 280 0 3 207 2 208 198 2 197 3 0 270
0 270 -197 3 -198 2 -2 203 -3 202 -276 3 c-151 1 -278 -1 -282 -5z m493 -258
c0 -182 1 -195 19 -205 12 -6 95 -10 200 -10 l181 0 0 -205 0 -205 -188 0
c-133 0 -192 -4 -200 -12 -9 -9 -12 -69 -12 -210 l0 -198 -215 0 -215 0 0 198
c0 141 -3 201 -12 210 -9 9 -68 12 -205 12 l-193 0 0 205 0 205 186 0 c109 0
193 4 205 10 18 10 19 23 19 205 l0 195 215 0 215 0 0 -195z"/>
</g>
</svg>
